<svg data-v-423bf9ae="" xmlns="http://www.w3.org/2000/svg" viewBox="0 0 269.4313744232223 60" class="font"><!----><!----><defs data-v-423bf9ae=""><linearGradient data-v-423bf9ae="" gradientTransform="rotate(25)" id="67b4b3db-67e7-4ab7-a0c6-7717a59dbc3c" x1="0%" y1="0%" x2="100%" y2="0%"><stop data-v-423bf9ae="" offset="0%" style="stop-color: rgb(229, 255, 0); stop-opacity: 1;"></stop><stop data-v-423bf9ae="" offset="100%" style="stop-color: rgb(252, 84, 84); stop-opacity: 1;"></stop></linearGradient></defs><g data-v-423bf9ae="" id="1375d553-3a7f-4456-a576-baf4f8a9d3a1" fill="url(#67b4b3db-67e7-4ab7-a0c6-7717a59dbc3c)" transform="matrix(4.548900498152012,0,0,4.548900498152012,-2.1834703552059977,-23.42683847613697)"><path d="M6.26 7.87L6.26 7.87Q7.20 7.87 7.77 8.37L7.77 8.37L7.77 8.37Q8.34 8.88 8.34 9.70L8.34 9.70L8.34 9.70Q8.34 10.37 7.97 11.05L7.97 11.05L7.97 11.05Q7.59 11.73 6.95 12.25L6.95 12.25L6.95 12.25Q6.31 12.77 5.54 12.98L5.54 12.98L5.33 12.61L5.33 12.61Q5.94 12.33 6.31 11.75L6.31 11.75L6.31 11.75Q6.68 11.17 6.68 10.50L6.68 10.50L6.68 10.50Q6.68 9.70 6.24 9.22L6.24 9.22L6.24 9.22Q5.81 8.74 5.11 8.74L5.11 8.74L5.11 8.74Q4.37 8.74 3.72 9.33L3.72 9.33L3.72 9.33Q3.07 9.93 2.68 10.93L2.68 10.93L2.68 10.93Q2.30 11.93 2.30 13.08L2.30 13.08L2.30 13.08Q2.30 14.25 2.66 15.16L2.66 15.16L2.66 15.16Q3.02 16.06 3.68 16.56L3.68 16.56L3.68 16.56Q4.33 17.07 5.17 17.07L5.17 17.07L5.17 17.07Q5.77 17.07 6.38 16.77L6.38 16.77L6.38 16.77Q6.99 16.46 7.56 15.89L7.56 15.89L7.94 16.24L7.94 16.24Q7.28 17.09 6.31 17.66L6.31 17.66L6.31 17.66Q5.33 18.23 4.27 18.23L4.27 18.23L4.27 18.23Q3.12 18.23 2.26 17.70L2.26 17.70L2.26 17.70Q1.40 17.16 0.94 16.22L0.94 16.22L0.94 16.22Q0.48 15.27 0.48 14.06L0.48 14.06L0.48 14.06Q0.48 12.35 1.25 10.93L1.25 10.93L1.25 10.93Q2.03 9.51 3.35 8.69L3.35 8.69L3.35 8.69Q4.68 7.87 6.26 7.87L6.26 7.87ZM12.21 10.93L12.47 11.26L12.47 11.26Q11.55 11.91 11.02 12.75L11.02 12.75L11.02 12.75Q10.50 13.58 10.50 14.70L10.50 14.70L10.50 14.70Q10.50 15.32 10.74 15.95L10.74 15.95L10.74 15.95Q10.98 16.58 11.44 16.99L11.44 16.99L11.44 16.99Q11.90 17.40 12.54 17.40L12.54 17.40L12.54 17.40Q13.36 17.40 13.85 16.81L13.85 16.81L13.85 16.81Q14.35 16.23 14.35 15.36L14.35 15.36L14.35 15.36Q14.35 14.70 14.01 14.02L14.01 14.02L14.01 14.02Q13.66 13.34 13.09 12.87L13.09 12.87L13.09 12.87Q12.52 12.40 11.86 12.35L11.86 12.35L11.86 12.35Q12.15 12.03 12.49 11.76L12.49 11.76L12.49 11.76Q12.84 11.49 13.36 11.12L13.36 11.12L13.36 11.12Q14.36 11.45 14.96 12.36L14.96 12.36L14.96 12.36Q15.55 13.27 15.55 14.36L15.55 14.36L15.55 14.36Q15.55 15.33 15.13 16.24L15.13 16.24L15.13 16.24Q14.70 17.15 13.89 17.72L13.89 17.72L13.89 17.72Q13.09 18.28 12.03 18.28L12.03 18.28L12.03 18.28Q11.14 18.28 10.41 17.87L10.41 17.87L10.41 17.87Q9.67 17.46 9.24 16.74L9.24 16.74L9.24 16.74Q8.81 16.02 8.81 15.15L8.81 15.15L8.81 15.15Q8.81 13.65 9.75 12.52L9.75 12.52L9.75 12.52Q10.70 11.38 12.21 10.93L12.21 10.93ZM20.02 10.93L20.29 11.26L20.29 11.26Q19.36 11.91 18.84 12.75L18.84 12.75L18.84 12.75Q18.31 13.58 18.31 14.70L18.31 14.70L18.31 14.70Q18.31 15.32 18.55 15.95L18.55 15.95L18.55 15.95Q18.79 16.58 19.25 16.99L19.25 16.99L19.25 16.99Q19.71 17.40 20.36 17.40L20.36 17.40L20.36 17.40Q21.17 17.40 21.66 16.81L21.66 16.81L21.66 16.81Q22.16 16.23 22.16 15.36L22.16 15.36L22.16 15.36Q22.16 14.70 21.82 14.02L21.82 14.02L21.82 14.02Q21.48 13.34 20.90 12.87L20.90 12.87L20.90 12.87Q20.33 12.40 19.67 12.35L19.67 12.35L19.67 12.35Q19.96 12.03 20.31 11.76L20.31 11.76L20.31 11.76Q20.65 11.49 21.17 11.12L21.17 11.12L21.17 11.12Q22.18 11.45 22.77 12.36L22.77 12.36L22.77 12.36Q23.37 13.27 23.37 14.36L23.37 14.36L23.37 14.36Q23.37 15.33 22.94 16.24L22.94 16.24L22.94 16.24Q22.51 17.15 21.71 17.72L21.71 17.72L21.71 17.72Q20.90 18.28 19.84 18.28L19.84 18.28L19.84 18.28Q18.96 18.28 18.22 17.87L18.22 17.87L18.22 17.87Q17.49 17.46 17.05 16.74L17.05 16.74L17.05 16.74Q16.62 16.02 16.62 15.15L16.62 15.15L16.62 15.15Q16.62 13.65 17.56 12.52L17.56 12.52L17.56 12.52Q18.51 11.38 20.02 10.93L20.02 10.93ZM26.68 5.15L26.68 14.97L26.78 14.97L26.78 14.97Q27.24 13.37 27.98 12.17L27.98 12.17L27.98 12.17Q28.71 10.96 29.81 10.96L29.81 10.96L29.81 10.96Q30.32 10.96 30.63 11.31L30.63 11.31L30.63 11.31Q30.94 11.66 30.94 12.18L30.94 12.18L30.94 12.18Q30.94 13.05 30.22 13.83L30.22 13.83L30.22 13.83Q29.50 14.62 28.56 15.18L28.56 15.18L28.56 15.18Q28.69 15.36 28.81 15.50L28.81 15.50L28.81 15.50Q29.39 16.28 29.84 16.75L29.84 16.75L29.84 16.75Q30.30 17.22 30.70 17.22L30.70 17.22L30.70 17.22Q31.22 17.22 31.58 16.79L31.58 16.79L31.84 17.07L31.84 17.07Q31.53 17.57 30.97 17.91L30.97 17.91L30.97 17.91Q30.41 18.24 29.79 18.24L29.79 18.24L29.79 18.24Q29.19 18.24 28.71 17.82L28.71 17.82L28.71 17.82Q28.22 17.40 27.62 16.65L27.62 16.65L27.62 16.65Q27.16 16.09 27.03 15.97L27.03 15.97L26.91 16.04L26.91 16.04Q26.82 16.34 26.76 16.91L26.76 16.91L26.76 16.91Q26.70 17.49 26.68 17.91L26.68 17.91L25.02 18.27L25.02 5.74L26.68 5.15ZM28.81 12.42L28.81 12.42Q28.34 12.42 27.82 13.50L27.82 13.50L27.82 13.50Q27.30 14.59 26.96 15.58L26.96 15.58L26.96 15.58Q27.90 15.04 28.57 14.34L28.57 14.34L28.57 14.34Q29.23 13.64 29.23 12.98L29.23 12.98L29.23 12.98Q29.23 12.75 29.12 12.59L29.12 12.59L29.12 12.59Q29.01 12.42 28.81 12.42L28.81 12.42ZM43.08 7.83L41.33 8.39L41.33 13.36L37.95 13.36L37.95 7.83L36.20 8.39L36.20 13.36L35.56 13.36L35.08 14.29L36.20 14.29L36.20 18.34L37.95 17.77L37.95 14.29L41.33 14.29L41.33 18.34L43.08 17.77L43.08 7.83ZM51.00 10.91L51.00 16.79L51.00 16.79Q51.00 17.00 51.10 17.13L51.10 17.13L51.10 17.13Q51.20 17.26 51.38 17.26L51.38 17.26L51.38 17.26Q51.66 17.26 52.07 16.79L52.07 16.79L52.30 17.04L52.30 17.04Q51.95 17.75 51.44 17.97L51.44 17.97L51.44 17.97Q50.92 18.19 50.65 18.19L50.65 18.19L50.65 18.19Q50.13 18.19 49.86 17.95L49.86 17.95L49.86 17.95Q49.59 17.71 49.47 17.16L49.47 17.16L49.47 17.16Q49.35 16.60 49.35 15.60L49.35 15.60L49.35 15.18L49.29 14.21L49.24 14.21L49.24 14.21Q48.90 15.71 48.24 16.98L48.24 16.98L48.24 16.98Q47.57 18.26 46.49 18.26L46.49 18.26L46.49 18.26Q46.02 18.26 45.79 18.03L45.79 18.03L45.79 18.03Q45.56 17.79 45.49 17.40L45.49 17.40L45.49 17.40Q45.43 17.01 45.43 16.32L45.43 16.32L45.43 12.43L45.43 12.43Q45.43 12.19 45.33 12.06L45.33 12.06L45.33 12.06Q45.23 11.93 45.07 11.93L45.07 11.93L45.07 11.93Q44.73 11.93 44.35 12.43L44.35 12.43L44.11 12.17L44.11 12.17Q44.35 11.65 44.72 11.38L44.72 11.38L44.72 11.38Q45.08 11.12 45.35 11.05L45.35 11.05L45.35 11.05Q45.63 10.98 45.71 10.98L45.71 10.98L45.71 10.98Q46.47 10.98 46.79 11.39L46.79 11.39L46.79 11.39Q47.11 11.80 47.11 12.43L47.11 12.43L47.11 16.17L47.11 16.17Q47.11 16.42 47.17 16.56L47.17 16.56L47.17 16.56Q47.24 16.70 47.33 16.70L47.33 16.70L47.33 16.70Q47.84 16.70 48.27 15.69L48.27 15.69L48.27 15.69Q48.71 14.67 48.97 13.38L48.97 13.38L48.97 13.38Q49.24 12.08 49.24 11.49L49.24 11.49L51.00 10.91ZM59.71 14.49L59.71 14.49Q59.71 15.34 59.18 16.23L59.18 16.23L59.18 16.23Q58.65 17.11 57.81 17.68L57.81 17.68L57.81 17.68Q56.97 18.26 56.11 18.26L56.11 18.26L56.11 18.26Q54.89 18.26 54.21 17.48L54.21 17.48L54.21 17.48Q53.54 16.70 53.54 15.48L53.54 15.48L53.54 5.74L55.22 5.15L55.22 15.79L55.22 15.79Q55.22 16.45 55.55 16.95L55.55 16.95L55.55 16.95Q55.89 17.44 56.53 17.44L56.53 17.44L56.53 17.44Q57.06 17.44 57.45 17.12L57.45 17.12L57.45 17.12Q57.83 16.80 58.03 16.30L58.03 16.30L58.03 16.30Q58.23 15.79 58.23 15.29L58.23 15.29L58.23 15.29Q58.23 14.59 57.88 13.89L57.88 13.89L57.88 13.89Q57.54 13.20 56.95 12.73L56.95 12.73L56.95 12.73Q56.36 12.26 55.68 12.22L55.68 12.22L57.19 11.12L57.19 11.12Q57.83 11.31 58.41 11.84L58.41 11.84L58.41 11.84Q59.00 12.38 59.35 13.08L59.35 13.08L59.35 13.08Q59.71 13.79 59.71 14.49L59.71 14.49Z"></path></g><!----><!----></svg>